<svg width="183" height="40" viewBox="0 0 183 40" fill="none" xmlns="http://www.w3.org/2000/svg">
<path d="M45.704 26.24C44.44 26.24 43.472 25.88 42.8 25.16C42.144 24.44 41.816 23.424 41.816 22.112V13.088C41.816 11.776 42.144 10.76 42.8 10.04C43.472 9.32 44.44 8.96 45.704 8.96C46.968 8.96 47.928 9.32 48.584 10.04C49.256 10.76 49.592 11.776 49.592 13.088V14.864H47.096V12.92C47.096 11.88 46.656 11.36 45.776 11.36C44.896 11.36 44.456 11.88 44.456 12.92V22.304C44.456 23.328 44.896 23.84 45.776 23.84C46.656 23.84 47.096 23.328 47.096 22.304V19.736H49.592V22.112C49.592 23.424 49.256 24.44 48.584 25.16C47.928 25.88 46.968 26.24 45.704 26.24ZM52.0115 9.2H55.9235C57.2835 9.2 58.2755 9.52 58.8995 10.16C59.5235 10.784 59.8355 11.752 59.8355 13.064V14.096C59.8355 15.84 59.2595 16.944 58.1075 17.408V17.456C58.7475 17.648 59.1955 18.04 59.4515 18.632C59.7235 19.224 59.8595 20.016 59.8595 21.008V23.96C59.8595 24.44 59.8755 24.832 59.9075 25.136C59.9395 25.424 60.0195 25.712 60.1475 26H57.4595C57.3635 25.728 57.2995 25.472 57.2675 25.232C57.2355 24.992 57.2195 24.56 57.2195 23.936V20.864C57.2195 20.096 57.0915 19.56 56.8355 19.256C56.5955 18.952 56.1715 18.8 55.5635 18.8H54.6515V26H52.0115V9.2ZM55.6115 16.4C56.1395 16.4 56.5315 16.264 56.7875 15.992C57.0595 15.72 57.1955 15.264 57.1955 14.624V13.328C57.1955 12.72 57.0835 12.28 56.8595 12.008C56.6515 11.736 56.3155 11.6 55.8515 11.6H54.6515V16.4H55.6115ZM62.5312 9.2H65.1712V26H62.5312V9.2ZM71.4204 26.24C70.1404 26.24 69.1724 25.88 68.5164 25.16C67.8604 24.424 67.5324 23.376 67.5324 22.016V21.056H70.0284V22.208C70.0284 23.296 70.4844 23.84 71.3964 23.84C71.8444 23.84 72.1804 23.712 72.4044 23.456C72.6444 23.184 72.7644 22.752 72.7644 22.16C72.7644 21.456 72.6044 20.84 72.2844 20.312C71.9644 19.768 71.3724 19.12 70.5084 18.368C69.4204 17.408 68.6604 16.544 68.2284 15.776C67.7964 14.992 67.5804 14.112 67.5804 13.136C67.5804 11.808 67.9164 10.784 68.5884 10.064C69.2604 9.328 70.2364 8.96 71.5164 8.96C72.7804 8.96 73.7324 9.328 74.3724 10.064C75.0284 10.784 75.3564 11.824 75.3564 13.184V13.88H72.8604V13.016C72.8604 12.44 72.7484 12.024 72.5244 11.768C72.3004 11.496 71.9724 11.36 71.5404 11.36C70.6604 11.36 70.2204 11.896 70.2204 12.968C70.2204 13.576 70.3804 14.144 70.7004 14.672C71.0364 15.2 71.6364 15.84 72.5004 16.592C73.6044 17.552 74.3644 18.424 74.7804 19.208C75.1964 19.992 75.4044 20.912 75.4044 21.968C75.4044 23.344 75.0604 24.4 74.3724 25.136C73.7004 25.872 72.7164 26.24 71.4204 26.24ZM79.8221 11.6H77.0621V9.2H85.2221V11.6H82.4621V26H79.8221V11.6ZM87.3403 9.2H89.9803V26H87.3403V9.2ZM94.8374 9.2H98.4134L101.149 26H98.5094L98.0294 22.664V22.712H95.0294L94.5494 26H92.1014L94.8374 9.2ZM97.7174 20.432L96.5414 12.128H96.4934L95.3414 20.432H97.7174ZM103.27 9.2H106.582L109.15 19.256H109.198V9.2H111.55V26H108.838L105.67 13.736H105.622V26H103.27V9.2ZM127.44 26.24C126.176 26.24 125.208 25.88 124.536 25.16C123.88 24.44 123.552 23.424 123.552 22.112V13.088C123.552 11.776 123.88 10.76 124.536 10.04C125.208 9.32 126.176 8.96 127.44 8.96C128.704 8.96 129.664 9.32 130.32 10.04C130.992 10.76 131.328 11.776 131.328 13.088V14.864H128.832V12.92C128.832 11.88 128.392 11.36 127.512 11.36C126.632 11.36 126.192 11.88 126.192 12.92V22.304C126.192 23.328 126.632 23.84 127.512 23.84C128.392 23.84 128.832 23.328 128.832 22.304V19.736H131.328V22.112C131.328 23.424 130.992 24.44 130.32 25.16C129.664 25.88 128.704 26.24 127.44 26.24ZM135.787 9.2H139.363L142.099 26H139.459L138.979 22.664V22.712H135.979L135.499 26H133.051L135.787 9.2ZM138.667 20.432L137.491 12.128H137.443L136.291 20.432H138.667ZM147.582 26.24C146.302 26.24 145.334 25.88 144.678 25.16C144.022 24.424 143.694 23.376 143.694 22.016V21.056H146.19V22.208C146.19 23.296 146.646 23.84 147.558 23.84C148.006 23.84 148.342 23.712 148.566 23.456C148.806 23.184 148.926 22.752 148.926 22.16C148.926 21.456 148.766 20.84 148.446 20.312C148.126 19.768 147.534 19.12 146.67 18.368C145.582 17.408 144.822 16.544 144.39 15.776C143.958 14.992 143.742 14.112 143.742 13.136C143.742 11.808 144.078 10.784 144.75 10.064C145.422 9.328 146.398 8.96 147.678 8.96C148.942 8.96 149.894 9.328 150.534 10.064C151.19 10.784 151.518 11.824 151.518 13.184V13.88H149.022V13.016C149.022 12.44 148.91 12.024 148.686 11.768C148.462 11.496 148.134 11.36 147.702 11.36C146.822 11.36 146.382 11.896 146.382 12.968C146.382 13.576 146.542 14.144 146.862 14.672C147.198 15.2 147.798 15.84 148.662 16.592C149.766 17.552 150.526 18.424 150.942 19.208C151.358 19.992 151.566 20.912 151.566 21.968C151.566 23.344 151.222 24.4 150.534 25.136C149.862 25.872 148.878 26.24 147.582 26.24ZM155.984 11.6H153.224V9.2H161.384V11.6H158.624V26H155.984V11.6ZM163.502 9.2H167.414C168.774 9.2 169.766 9.52 170.39 10.16C171.014 10.784 171.326 11.752 171.326 13.064V14.096C171.326 15.84 170.75 16.944 169.598 17.408V17.456C170.238 17.648 170.686 18.04 170.942 18.632C171.214 19.224 171.35 20.016 171.35 21.008V23.96C171.35 24.44 171.366 24.832 171.398 25.136C171.43 25.424 171.51 25.712 171.638 26H168.95C168.854 25.728 168.79 25.472 168.758 25.232C168.726 24.992 168.71 24.56 168.71 23.936V20.864C168.71 20.096 168.582 19.56 168.326 19.256C168.086 18.952 167.662 18.8 167.054 18.8H166.142V26H163.502V9.2ZM167.102 16.4C167.63 16.4 168.022 16.264 168.278 15.992C168.55 15.72 168.686 15.264 168.686 14.624V13.328C168.686 12.72 168.574 12.28 168.35 12.008C168.142 11.736 167.806 11.6 167.342 11.6H166.142V16.4H167.102ZM177.838 26.24C176.542 26.24 175.55 25.872 174.862 25.136C174.174 24.4 173.83 23.36 173.83 22.016V13.184C173.83 11.84 174.174 10.8 174.862 10.064C175.55 9.328 176.542 8.96 177.838 8.96C179.134 8.96 180.126 9.328 180.814 10.064C181.502 10.8 181.846 11.84 181.846 13.184V22.016C181.846 23.36 181.502 24.4 180.814 25.136C180.126 25.872 179.134 26.24 177.838 26.24ZM177.838 23.84C178.75 23.84 179.206 23.288 179.206 22.184V13.016C179.206 11.912 178.75 11.36 177.838 11.36C176.926 11.36 176.47 11.912 176.47 13.016V22.184C176.47 23.288 176.926 23.84 177.838 23.84Z" fill="#DDE6ED"/>
<g clip-path="url(#clip0_150_305)" filter="url(#filter0_d_150_305)">
<path d="M37.0659 22.7417C36.9444 22.8735 36.9738 23.0279 36.9411 23.159C36.6993 24.1295 36.2533 24.9649 35.3869 25.5209C35.2625 25.6008 35.2073 25.6945 35.1881 25.8354C35.151 26.1074 35.1047 26.3797 34.9864 26.6308C34.8478 26.9248 34.6935 27.233 34.3094 27.2119C33.9451 27.1919 33.8822 26.8672 33.7994 26.564C33.5759 26.8523 33.4245 27.2222 32.984 27.1477C32.6622 27.0933 32.628 26.803 32.5483 26.5327C32.3593 26.7116 32.2141 26.947 31.9251 26.9286C31.7397 26.9168 31.6375 26.7839 31.5603 26.6251C31.1769 27.2601 30.7721 27.869 30.7833 28.652C30.7877 28.9585 30.8489 29.2108 31.0621 29.4293C31.2078 29.5786 31.3558 29.7286 31.4807 29.8949C31.7493 30.2526 31.6927 30.5743 31.3178 30.8212C30.9716 31.0493 30.5792 31.1715 30.1722 31.2133C28.8233 31.3516 27.4688 31.3318 26.1197 31.2498C25.1908 31.1933 24.5005 30.6782 24.015 29.888C23.7784 29.5029 23.5924 29.0925 23.4048 28.6832C23.3466 28.556 23.2874 28.5037 23.1354 28.5204C20.81 28.7761 18.5028 28.7427 16.2392 28.0613C16.2197 28.0554 16.196 28.0634 16.1661 28.0655C16.0761 28.4952 16.0702 28.9348 16.0339 29.3715C16.0163 29.5839 16.1203 29.7237 16.2644 29.8544C16.4939 30.0627 16.6732 30.3063 16.5868 30.6336C16.4955 30.9791 16.1946 31.1038 15.886 31.1566C14.3379 31.4213 12.8299 31.2547 11.3302 30.7902C10.1454 30.4234 9.43611 29.6901 9.21728 28.4752C9.20376 28.4002 9.20317 28.3196 9.11436 28.2633C8.99114 28.5751 8.8524 28.88 8.45118 28.8893C8.11881 28.8971 7.92379 28.6948 7.57975 28.0032C7.46457 28.0431 7.44342 28.1652 7.37441 28.2432C6.96131 28.7101 6.42017 28.6453 6.15201 28.0857C6.00325 27.7753 5.94032 27.4399 5.91076 27.0989C5.90028 26.978 5.89943 26.8648 5.78784 26.7757C4.73333 25.9336 4.35032 24.764 4.19366 23.4858C4.17227 23.3113 4.15171 23.1367 4.1275 22.9339C4.0772 22.791 4.10961 22.6708 4.09992 22.5238C4.09737 22.0972 4.10518 21.7002 4.08088 21.2777C4.06592 21.1173 4.06592 20.9825 4.06592 20.8189C4.21943 20.4462 4.18791 20.0699 4.24991 19.7101C4.49799 18.2706 4.92947 16.8944 5.61698 15.6026C5.68486 15.475 5.77137 15.3716 5.60304 15.2373C5.47633 15.1363 5.54058 14.9702 5.56852 14.8315C5.80842 13.6406 6.24357 12.5153 6.72435 11.4055C7.81235 8.89389 9.61005 6.96123 11.7263 5.29317C13.3386 4.02232 15.1171 3.09242 17.1588 2.72783C17.3132 2.70027 17.4112 2.61135 17.5158 2.51223C18.7249 1.36666 20.1975 1.02423 21.8077 1.12323C22.1538 1.1445 22.3204 1.37203 22.2026 1.68926C22.1193 1.91347 22.2283 1.92493 22.3737 1.96672C22.6702 2.05189 23.0261 2.10088 23.2115 2.32741C23.5571 2.74978 24.0452 2.81986 24.4947 2.98733C27.4577 4.09106 29.6896 6.10849 31.5223 8.6162C32.5702 10.05 33.4413 11.5809 34.0559 13.2599C34.3304 14.0098 34.7664 14.697 35.1695 15.391C35.986 16.7963 36.6633 18.2545 36.8989 19.883C36.9413 20.1763 36.978 20.4706 37.0416 20.7772C37.0659 20.8817 37.0659 20.9733 37.0659 21.0925C36.9973 21.2352 37.0434 21.3597 37.0515 21.4979C37.0659 21.6291 37.0659 21.7423 37.0659 21.8837C36.9979 22.0492 37.0442 22.1944 37.0512 22.3549C37.0659 22.4871 37.0659 22.6003 37.0659 22.7417Z" fill="black"/>
<path d="M4.06592 21.2829C4.20873 21.6453 4.08767 22.053 4.12599 22.4827C4.11048 22.5209 4.10014 22.5281 4.07786 22.5207C4.06592 22.1086 4.06592 21.7112 4.06592 21.2829Z" fill="#747595"/>
<path d="M37.066 22.3451C36.9463 22.2406 37.0015 22.0924 37.0478 21.9293C37.066 22.0468 37.066 22.1815 37.066 22.3451Z" fill="#494B75"/>
<path d="M37.0659 21.4877C36.9623 21.4035 36.9913 21.2769 37.0463 21.1348C37.0659 21.2331 37.0659 21.3463 37.0659 21.4877Z" fill="#4C4E77"/>
<path d="M4.06592 22.5343C4.06592 22.506 4.09313 22.5117 4.10697 22.5127C4.12567 22.6259 4.13052 22.7381 4.1298 22.878C4.12423 22.9056 4.09515 22.9025 4.08054 22.9023C4.06592 22.7889 4.06592 22.6757 4.06592 22.5343Z" fill="#B6B7C8"/>
<path d="M21.5035 2.41945C21.3063 2.4646 21.1216 2.48787 20.9362 2.50452C20.777 2.51883 20.6933 2.59795 20.7033 2.7603C20.7126 2.9095 20.805 2.97117 20.9457 2.97063C21.0887 2.97007 21.2323 2.97437 21.3744 2.96261C22.7327 2.85022 23.9846 3.23638 25.1927 3.79655C27.2466 4.74895 28.9133 6.1796 30.3192 7.94304C31.3234 9.2025 32.2017 10.5374 32.9205 11.977C33.2997 12.7363 33.5926 13.5274 33.7302 14.3698C33.7454 14.463 33.8144 14.5772 33.7046 14.6369C33.5971 14.6955 33.5274 14.5828 33.4582 14.5181C33.1106 14.1927 32.8155 13.8265 32.6066 13.396C32.5292 13.2366 32.4432 13.0856 32.3093 12.9648C32.1951 12.8617 32.0778 12.8508 31.9487 12.9306C31.8194 13.0107 31.8324 13.1354 31.8598 13.2537C31.8767 13.3263 31.9197 13.3951 31.9605 13.4596C32.74 14.6891 33.2355 16.0322 33.5373 17.449C33.5958 17.7235 33.6603 18.0059 33.6297 18.3196C33.4058 18.2339 33.3847 18.0198 33.2944 17.8623C33.2155 17.7246 33.154 17.5767 32.9506 17.6401C32.7561 17.7008 32.7391 17.8605 32.7776 18.0145C32.9674 18.7737 33.0336 19.5469 33.0796 20.3249C33.1205 21.0173 33.1048 21.7092 33.0941 22.4013C33.0925 22.501 33.0894 22.6598 32.9745 22.6787C32.8449 22.7 32.8211 22.5417 32.7879 22.4454C32.6015 21.9054 32.4758 21.35 32.3712 20.7886C32.3415 20.6295 32.3503 20.39 32.0985 20.4107C31.8518 20.4309 31.799 20.6412 31.7972 20.8514C31.7905 21.6541 31.8033 22.4573 31.7819 23.2596C31.7526 24.3576 31.4921 25.4071 31.0524 26.4122C31.0198 26.4866 31.0074 26.5854 30.9074 26.6159C30.8448 26.5794 30.8679 26.5198 30.8647 26.4707C30.8539 26.3009 30.7968 26.1358 30.6044 26.1671C30.4159 26.1977 30.3054 26.3519 30.3455 26.5609C30.4633 27.1761 30.3935 27.7831 30.2875 28.3915C30.1933 28.933 30.3181 29.401 30.7244 29.8051C31.1993 30.2772 31.2586 30.343 30.4949 30.6218C30.0787 30.7737 29.6302 30.7978 29.197 30.8059C28.2207 30.8241 27.2421 30.8827 26.2664 30.7664C25.4162 30.6652 24.7918 30.2381 24.3877 29.488C24.2366 29.2074 24.1033 28.9173 23.954 28.6358C23.8674 28.4724 23.8619 28.4014 24.0887 28.3688C25.1859 28.2111 26.2662 27.9711 27.331 27.6604C27.5092 27.6084 27.6639 27.5416 27.6131 27.3353C27.5571 27.1078 27.3803 27.1244 27.1891 27.1799C25.8082 27.5809 24.4098 27.916 22.9756 28.0374C20.7561 28.2254 18.5447 28.23 16.3926 27.516C15.8362 27.3313 15.7461 27.4001 15.6759 27.9734C15.6214 28.4194 15.5652 28.864 15.5476 29.3142C15.5351 29.6358 15.6386 29.8884 15.8676 30.109C15.9721 30.2096 16.1661 30.2973 16.1099 30.4675C16.0481 30.6546 15.8328 30.6638 15.662 30.6896C15.0404 30.7833 14.4114 30.8021 13.7888 30.7487C12.8 30.6638 11.8456 30.4207 10.9356 30.0103C10.3048 29.7259 9.99236 29.219 9.87124 28.5381C10.5486 28.5243 10.6765 28.3935 10.6651 27.7035C10.6637 27.6164 10.6649 27.5293 10.6649 27.4397C10.8334 27.4119 10.9025 27.5506 11.0096 27.6148C11.2245 27.7436 11.4496 27.7713 11.6658 27.6403C11.8799 27.5106 11.9066 27.3074 11.8742 27.066C11.8392 26.8048 11.8176 26.5437 11.7354 26.2911C11.6967 26.1721 11.7 26.0548 11.778 25.9452C11.9696 25.6761 12.1502 25.4 12.2554 25.0833C12.3008 24.9465 12.4092 24.9452 12.5218 24.9452C12.7635 24.945 13.0037 24.9437 13.241 24.8789C13.7539 24.7389 13.8723 24.332 13.5112 23.9312C13.2794 23.674 12.989 23.4953 12.691 23.3298C12.5464 23.2495 12.4496 23.1626 12.4485 22.9771C12.4404 21.5981 12.0843 20.2657 11.8949 18.9108C11.8464 18.5637 11.7915 18.218 11.7843 17.8657C11.7737 17.3498 11.7466 16.8343 11.7317 16.3186C11.7264 16.1332 11.7187 15.9336 11.48 15.9346C11.2595 15.9355 11.2034 16.1157 11.2025 16.3102C11.198 17.321 11.2578 18.3265 11.4223 19.3257C11.6679 20.817 11.9808 22.2974 11.9336 23.8268C11.895 25.0789 11.3372 25.9702 10.2222 26.4908C9.24324 26.9479 8.20261 27.1115 7.1438 26.82C5.95445 26.4927 5.31572 25.6045 4.99503 24.4802C4.65803 23.2987 4.62486 22.0877 4.70354 20.8601C4.80546 19.2699 5.21695 17.7696 5.85274 16.324C6.25584 15.4075 6.80707 14.5922 7.65289 14.0163C7.78965 13.9232 7.87601 13.8265 7.78301 13.6674C7.69577 13.5182 7.56134 13.5094 7.41032 13.5765C6.98442 13.7658 6.68687 14.1052 6.3904 14.4452C6.33486 14.5089 6.30134 14.593 6.17537 14.6221C6.3803 13.699 6.688 12.8349 7.04689 11.9872C7.59807 10.6854 8.27861 9.46419 9.20336 8.38265C10.5499 6.80785 12.0886 5.46612 13.8825 4.42276C14.7913 3.89421 15.7564 3.51109 16.7837 3.28353C17.1503 3.20232 17.8088 2.86419 18.1216 2.61656C18.9496 1.96127 19.8953 1.61737 20.9471 1.57902C21.1551 1.57143 21.3716 1.43901 21.6035 1.59469C21.4862 1.72321 21.3389 1.75699 21.1987 1.80377C21.0433 1.85561 20.864 1.88358 20.8935 2.11699C20.9204 2.32952 21.1014 2.31445 21.243 2.34978C21.3048 2.36518 21.374 2.35061 21.467 2.34677C21.5014 2.36082 21.5085 2.37775 21.5035 2.41945Z" fill="#CAB492"/>
<path d="M33.2615 23.3819C33.6369 22.9255 33.6407 22.4039 33.6384 21.8734C33.6345 20.9843 33.6179 20.0965 33.5145 19.2125C33.4993 19.0823 33.5216 19.0534 33.6669 19.0614C34.052 19.0824 34.2605 18.84 34.2175 18.4344C34.1094 17.4162 33.8997 16.4202 33.5038 15.4722C33.4034 15.2317 33.4436 15.148 33.7048 15.1811C33.8409 15.1984 33.9849 15.1743 34.0751 15.0772C34.2707 14.8666 34.344 14.9579 34.4609 15.1636C35.0692 16.2334 35.6931 17.2972 36.0445 18.4857C36.4966 20.015 36.7436 21.5745 36.3917 23.157C36.0896 24.5158 35.1168 25.4937 33.5618 25.5581C33.1062 25.5769 32.6687 25.5783 32.2565 25.351C32.0891 25.2587 32.0144 25.1407 32.0619 24.9491C32.2391 24.234 32.2917 23.5034 32.3262 22.7115C32.5398 23.0495 32.7075 23.3905 33.1712 23.3569C33.2111 23.3876 33.2173 23.4201 33.2121 23.478C33.0722 23.8441 33.099 24.1924 33.1845 24.537C33.2277 24.7116 33.321 24.8669 33.5179 24.9108C33.7319 24.9585 33.8745 24.8346 33.9971 24.6858C34.1784 24.4656 34.2329 24.1937 34.287 23.9242C34.3021 23.8488 34.3011 23.7602 34.202 23.7366C34.1088 23.7144 34.0617 23.7852 34.0284 23.8561C33.9628 23.9957 33.9463 24.1531 33.8776 24.2917C33.8235 24.4007 33.7662 24.528 33.6199 24.5049C33.4774 24.4824 33.451 24.347 33.4296 24.2265C33.3863 23.9825 33.4797 23.7149 33.2899 23.4732C33.2712 23.4373 33.2657 23.4218 33.2615 23.3819Z" fill="#CAB492"/>
<path d="M8.10772 27.8251C8.05963 27.7018 7.96301 27.5747 8.07146 27.5022C8.22039 27.4026 8.41279 27.4478 8.58377 27.4695C8.72256 27.487 8.67472 27.6201 8.68657 27.7115C8.68797 27.7223 8.68685 27.7334 8.68676 27.7444C8.685 27.9624 8.72154 28.2856 8.51483 28.3292C8.25324 28.3843 8.20897 28.052 8.10772 27.8251Z" fill="#CAB492"/>
<path d="M6.88503 27.9784C6.67357 27.911 6.42079 27.4578 6.46757 27.2738C6.47421 27.2476 6.50858 27.204 6.51909 27.2071C6.73785 27.2696 6.99101 27.2905 7.16096 27.42C7.29389 27.5212 7.13314 27.7131 7.05765 27.8491C7.02846 27.9017 6.96036 27.9327 6.88503 27.9784Z" fill="#CAB492"/>
<path d="M12.3832 24.1084C12.3629 23.8616 12.4359 23.7911 12.6369 23.9193C12.6827 23.9486 12.7398 23.9647 12.7775 24.0014C12.8926 24.1134 13.182 24.1705 13.0653 24.3592C12.9709 24.5119 12.693 24.5204 12.4892 24.4714C12.3069 24.4275 12.4088 24.2527 12.3832 24.1084Z" fill="#CAB492"/>
<path d="M9.82149 27.7676C9.76989 27.6954 9.73391 27.6409 9.69861 27.586C9.64137 27.4969 9.514 27.3825 9.58938 27.307C9.67949 27.2167 9.84175 27.1929 9.97696 27.1555C10.043 27.1373 10.0617 27.2021 10.0705 27.2592C10.108 27.5024 10.1829 27.7434 10.1144 28.0013C9.97627 27.98 9.92748 27.8555 9.82149 27.7676Z" fill="#CAB492"/>
<path d="M10.8851 26.9135C10.7783 26.6467 11.0154 26.6054 11.1366 26.5559C11.2835 26.4959 11.2587 26.6922 11.3048 26.7768C11.3289 26.8209 11.3275 26.8838 11.3237 26.9371C11.3178 27.0186 11.3655 27.125 11.2616 27.1711C11.1616 27.2153 11.1039 27.1251 11.0409 27.0685C10.9922 27.0247 10.9475 26.9765 10.8851 26.9135Z" fill="#CAB492"/>
<path d="M34.2314 26.2584C34.2374 26.1666 34.2267 26.0919 34.2556 26.0388C34.3209 25.9193 34.4618 25.8781 34.5662 25.9128C34.6759 25.9493 34.6278 26.0848 34.598 26.1741C34.5437 26.3369 34.5137 26.5148 34.3357 26.6656C34.2975 26.5246 34.2651 26.405 34.2314 26.2584Z" fill="#CAB492"/>
<path d="M33.0406 26.2159C33.0793 26.0334 33.2068 26.0472 33.2978 26.0895C33.4293 26.1506 33.3412 26.2589 33.2995 26.3368C33.2522 26.4254 33.23 26.5939 33.1089 26.5579C32.9721 26.5173 33.0631 26.3512 33.0406 26.2159Z" fill="#CAB492"/>
<path d="M32.177 25.8726C32.2947 26.0797 32.1552 26.1773 32.0398 26.3027C31.9405 25.9297 31.9538 25.8834 32.177 25.8726Z" fill="#CAB492"/>
<path d="M21.521 2.44599C21.4911 2.42756 21.4909 2.41093 21.4924 2.36908C21.7215 2.26441 21.9371 2.3018 22.1477 2.44779C21.9487 2.44779 21.7498 2.44779 21.521 2.44599Z" fill="#684990"/>
<path d="M33.1735 23.4994C33.1607 23.4528 33.1695 23.4247 33.1884 23.3764C33.213 23.3583 33.2275 23.3591 33.2525 23.358C33.2718 23.3685 33.2807 23.3796 33.2965 23.4109C33.3096 23.5127 33.2588 23.5232 33.1735 23.4994Z" fill="#3A316B"/>
<path d="M9.87174 28.5137C9.8626 28.5039 9.85525 28.4923 9.8479 28.4808C9.85502 28.4835 9.86215 28.4861 9.87304 28.4986C9.8768 28.5085 9.87353 28.5121 9.87174 28.5137Z" fill="#8456A6"/>
<path d="M14.5529 13.9203C14.7475 14.2814 14.9325 14.6172 15.2198 14.8851C15.4108 15.0631 15.577 15.0452 15.767 14.8797C16.0242 14.6557 16.1082 14.3498 16.2022 14.0454C16.2604 13.8569 16.313 13.6665 16.3765 13.4798C16.4219 13.3464 16.503 13.2554 16.6654 13.2582C16.8183 13.2609 16.9082 13.3334 16.972 13.464C17.1121 13.7503 17.2414 14.0435 17.4035 14.317C17.7299 14.8676 18.1279 14.9068 18.5656 14.4401C18.8392 14.1485 19.0119 13.7909 19.1958 13.4399C19.2878 13.2646 19.347 13.0086 19.6112 13.0348C19.852 13.0587 19.9162 13.2763 19.9922 13.4806C20.118 13.8191 20.2331 14.1687 20.4692 14.4523C20.6923 14.7202 20.8457 14.7195 21.1042 14.4898C21.3317 14.2875 21.4807 14.0348 21.61 13.7652C21.6618 13.6571 21.7151 13.5447 21.7915 13.4543C22.0147 13.1898 22.2388 13.2335 22.3397 13.5673C22.4449 13.9156 22.559 14.2598 22.7411 14.5746C23.0639 15.1325 23.4999 15.1482 23.8849 14.6241C24.0283 14.429 24.1578 14.2271 24.2374 13.9943C24.298 13.8168 24.3643 13.6399 24.6146 13.6521C24.8644 13.6643 24.8732 13.8608 24.9127 14.0227C24.9812 14.3035 25.0927 14.5648 25.232 14.8148C25.5312 15.3515 25.9892 15.3917 26.389 14.9185C26.611 14.6557 26.7698 14.3554 26.9015 14.0394C26.9437 13.9382 26.9844 13.836 27.0334 13.738C27.1028 13.5995 27.2096 13.5157 27.3751 13.5299C27.5294 13.5432 27.601 13.6485 27.6557 13.7752C27.7515 13.9968 27.8466 14.2187 27.9455 14.4389C27.986 14.529 28.0265 14.6214 28.0827 14.7017C28.254 14.9462 28.4274 15.2152 28.7784 15.1701C29.1077 15.1278 29.1992 14.8387 29.269 14.5742C29.3526 14.2576 29.3998 13.9313 29.459 13.6084C29.4863 13.4597 29.5173 13.3064 29.7152 13.343C29.902 13.3775 29.9545 13.516 29.9162 13.6931C29.817 14.1522 29.7726 14.6203 29.5999 15.0671C29.4374 15.4875 29.6206 15.9146 29.7001 16.3271C29.8611 17.1621 29.8383 17.9897 29.6533 18.8086C29.4639 19.6465 28.9746 20.2877 28.1937 20.6573C27.8858 20.803 27.881 20.955 27.9582 21.2432C28.226 22.2422 28.4269 23.2483 28.1737 24.2915C28.0279 24.8927 27.6841 25.3355 27.2021 25.6935C26.2448 26.4044 25.1496 26.7176 23.9785 26.8022C22.5454 26.9056 21.2319 26.5727 20.0984 25.6657C19.4442 25.1421 19.0071 24.4379 18.5999 23.7184C18.3348 23.25 18.0804 22.7754 17.8228 22.3027C17.7471 22.1638 17.6728 22.0445 17.4804 22.0445C15.9965 22.0447 15.1651 21.1461 14.5952 19.9137C14.2132 19.0877 13.9983 18.2008 13.9955 17.3012C13.9922 16.232 13.8903 15.1549 14.0914 14.0892C14.1534 13.761 14.2496 13.7108 14.5529 13.9203Z" fill="black"/>
<path d="M20.6747 10.4521C20.13 10.2363 19.6734 9.94388 19.3698 9.45752C19.0697 8.97701 19.1849 8.40314 19.6394 8.05693C20.2087 7.6233 20.8679 7.53888 21.5472 7.60634C22.2768 7.6788 23.003 7.7934 23.7098 7.99862C24.2627 8.15917 24.788 8.37491 25.1873 8.81702C25.5708 9.24166 25.5342 9.70617 25.0593 10.0243C23.6864 10.944 22.2219 11.0142 20.6747 10.4521Z" fill="black"/>
<path d="M15.0697 8.75389C15.7614 8.63763 16.4204 8.58079 17.0718 8.83497C17.6745 9.07014 17.84 9.54157 17.4934 10.0914C17.164 10.6139 16.6434 10.8703 16.0952 11.0753C15.3162 11.3664 14.517 11.5247 13.6831 11.3467C13.5978 11.3284 13.5131 11.3023 13.4318 11.2704C12.8122 11.0268 12.6354 10.4764 12.9882 9.91528C13.4648 9.1572 14.2297 8.91846 15.0697 8.75389Z" fill="black"/>
<path d="M26.384 7.41415C25.3061 7.84763 24.2956 7.60643 23.3042 7.19897C22.9683 7.06094 22.6667 6.84616 22.4389 6.55851C22.0063 6.0122 22.1813 5.41761 22.8239 5.15243C23.2509 4.97623 23.6786 5.01674 24.1175 5.07813C24.7745 5.16999 25.4047 5.34451 26.0032 5.62914C26.2021 5.7237 26.3802 5.85115 26.539 6.00667C27.076 6.53265 27.0359 6.96573 26.384 7.41415Z" fill="black"/>
<path d="M16.9478 5.55566C17.5963 5.00265 18.3546 5.03777 19.098 5.10927C19.6938 5.16657 20.3009 5.24403 20.796 5.65403C21.1886 5.97916 21.2261 6.37168 20.8669 6.72588C20.3103 7.27479 19.5835 7.40214 18.8545 7.52593C18.1786 7.64069 17.5364 7.56782 16.9683 7.16583C16.3422 6.72285 16.3343 6.02146 16.9478 5.55566Z" fill="black"/>
<path d="M28.5708 9.02312C29.1706 9.50303 29.6673 10.0394 29.9872 10.7205C30.1151 10.9929 30.2273 11.2743 30.023 11.5618C29.8019 11.8732 29.4574 11.9511 29.1383 11.8636C27.8399 11.5077 26.817 10.7799 26.2605 9.51395C26.1134 9.17949 26.063 8.80191 26.3608 8.49397C26.6726 8.17143 27.0529 8.218 27.4365 8.32697C27.8712 8.45047 28.2135 8.72739 28.5708 9.02312Z" fill="black"/>
<path d="M33.1284 23.4924C33.1937 23.4757 33.2354 23.4704 33.2903 23.4481C33.4743 23.4623 33.4891 23.5969 33.4958 23.7307C33.503 23.873 33.4956 24.0161 33.5039 24.1583C33.5108 24.2752 33.5019 24.4375 33.6389 24.4571C33.7604 24.4745 33.7844 24.3147 33.8208 24.2172C33.8704 24.0846 33.8944 23.9423 33.9442 23.8097C33.9907 23.6858 34.0538 23.5474 34.2238 23.6031C34.3841 23.6556 34.4234 23.7774 34.3792 23.9454C34.2927 24.2745 34.2256 24.6077 33.9636 24.8572C33.6882 25.1194 33.3424 25.0835 33.1793 24.7409C32.9911 24.3459 32.9687 23.9258 33.1284 23.4924Z" fill="black"/>
<path d="M17.4625 20.858C17.3781 20.7409 17.3131 20.6371 17.2306 20.5499C17.1318 20.4454 17.0115 20.3321 16.8631 20.4543C16.7179 20.5739 16.736 20.7246 16.8561 20.8589C17.038 21.0622 17.1992 21.278 17.3248 21.5446C16.5788 21.5326 16.0313 21.2002 15.5798 20.6623C15.4532 20.5114 15.5293 20.3911 15.5866 20.271C15.9448 19.52 16.5691 19.0482 17.3318 18.8106C19.109 18.2568 20.7554 18.5142 22.1982 19.7499C22.3339 19.8662 22.4581 19.9218 22.5975 19.7767C22.7392 19.6293 22.634 19.5185 22.5298 19.4123C22.4759 19.3573 22.4217 19.3026 22.3657 19.2498C22.0439 18.9469 22.0492 18.8911 22.4647 18.6851C24.5631 17.6448 26.4673 18.7393 27.2767 20.647C27.6165 21.4479 27.7604 22.3046 27.8285 23.1743C27.9302 24.4722 27.301 25.2962 26.167 25.8072C25.356 26.1727 24.4933 26.3861 23.6162 26.379C21.7004 26.3635 20.187 25.5849 19.2268 23.8591C18.6664 22.852 18.1517 21.8171 17.4625 20.858Z" fill="#D3C7B4"/>
<path d="M21.0996 8.05789C21.424 8.08275 21.7198 8.0991 22.0131 8.13586C22.1654 8.15495 22.2598 8.20988 22.1185 8.39023C21.7476 8.86391 21.6522 9.40216 21.839 9.97314C21.9125 10.1976 21.849 10.2684 21.6405 10.2262C20.999 10.0964 20.3835 9.90051 19.9123 9.41222C19.53 9.01603 19.5784 8.64981 20.0374 8.35392C20.3518 8.15123 20.7068 8.09029 21.0996 8.05789Z" fill="white"/>
<path d="M15.1272 9.41709C14.9144 9.917 15.1068 10.2692 15.479 10.5535C15.6153 10.6576 15.652 10.7515 15.4637 10.7888C14.9194 10.8967 14.3708 11.0529 13.8131 10.8919C13.2242 10.722 13.1502 10.4035 13.5638 9.93975C13.9547 9.50141 14.498 9.39582 15.0255 9.25559C15.1296 9.22789 15.1602 9.29772 15.1272 9.41709Z" fill="white"/>
<path d="M22.98 5.62601C23.5703 5.46409 24.126 5.53444 24.6826 5.66521C24.6734 5.82368 24.5532 5.86358 24.4842 5.94105C24.2768 6.17387 24.1486 6.42764 24.2382 6.74859C24.2905 6.93608 24.2642 7.02447 24.037 6.95378C23.6019 6.81835 23.1946 6.63835 22.8732 6.3041C22.5893 6.00889 22.6097 5.86043 22.98 5.62601Z" fill="white"/>
<path d="M18.4496 6.26997C18.4467 6.50433 18.525 6.6815 18.64 6.84843C18.7116 6.95251 18.7512 7.05335 18.557 7.06319C18.1121 7.08574 17.6792 7.06334 17.2868 6.81078C16.9338 6.5835 16.8904 6.25573 17.1993 5.97285C17.6197 5.58783 18.136 5.54292 18.7103 5.55427C18.6006 5.80243 18.4226 5.98781 18.4496 6.26997Z" fill="white"/>
<path d="M27.9638 9.76566C27.7162 9.96589 27.6439 10.225 27.6102 10.5391C27.1733 10.1781 26.8136 9.79336 26.6613 9.26025C26.5456 8.8553 26.7314 8.67446 27.1397 8.75768C27.5742 8.84626 27.9112 9.10749 28.248 9.369C28.4055 9.49126 28.501 9.61148 28.1926 9.65672C28.1204 9.66732 28.0544 9.72017 27.9638 9.76566Z" fill="white"/>
</g>
<defs>
<filter id="filter0_d_150_305" x="0" y="0" width="41" height="41" filterUnits="userSpaceOnUse" color-interpolation-filters="sRGB">
<feFlood flood-opacity="0" result="BackgroundImageFix"/>
<feColorMatrix in="SourceAlpha" type="matrix" values="0 0 0 0 0 0 0 0 0 0 0 0 0 0 0 0 0 0 127 0" result="hardAlpha"/>
<feOffset dy="4"/>
<feGaussianBlur stdDeviation="2"/>
<feComposite in2="hardAlpha" operator="out"/>
<feColorMatrix type="matrix" values="0 0 0 0 0 0 0 0 0 0 0 0 0 0 0 0 0 0 0.25 0"/>
<feBlend mode="normal" in2="BackgroundImageFix" result="effect1_dropShadow_150_305"/>
<feBlend mode="normal" in="SourceGraphic" in2="effect1_dropShadow_150_305" result="shape"/>
</filter>
<clipPath id="clip0_150_305">
<rect width="33" height="33" fill="white" transform="translate(4)"/>
</clipPath>
</defs>
</svg>
