<svg width="179" height="33" viewBox="0 0 179 33" fill="white" xmlns="http://www.w3.org/2000/svg">
<path d="M41.704 26.24C40.44 26.24 39.472 25.88 38.8 25.16C38.144 24.44 37.816 23.424 37.816 22.112V13.088C37.816 11.776 38.144 10.76 38.8 10.04C39.472 9.32 40.44 8.96 41.704 8.96C42.968 8.96 43.928 9.32 44.584 10.04C45.256 10.76 45.592 11.776 45.592 13.088V14.864H43.096V12.92C43.096 11.88 42.656 11.36 41.776 11.36C40.896 11.36 40.456 11.88 40.456 12.92V22.304C40.456 23.328 40.896 23.84 41.776 23.84C42.656 23.84 43.096 23.328 43.096 22.304V19.736H45.592V22.112C45.592 23.424 45.256 24.44 44.584 25.16C43.928 25.88 42.968 26.24 41.704 26.24ZM48.0115 9.2H51.9235C53.2835 9.2 54.2755 9.52 54.8995 10.16C55.5235 10.784 55.8355 11.752 55.8355 13.064V14.096C55.8355 15.84 55.2595 16.944 54.1075 17.408V17.456C54.7475 17.648 55.1955 18.04 55.4515 18.632C55.7235 19.224 55.8595 20.016 55.8595 21.008V23.96C55.8595 24.44 55.8755 24.832 55.9075 25.136C55.9395 25.424 56.0195 25.712 56.1475 26H53.4595C53.3635 25.728 53.2995 25.472 53.2675 25.232C53.2355 24.992 53.2195 24.56 53.2195 23.936V20.864C53.2195 20.096 53.0915 19.56 52.8355 19.256C52.5955 18.952 52.1715 18.8 51.5635 18.8H50.6515V26H48.0115V9.2ZM51.6115 16.4C52.1395 16.4 52.5315 16.264 52.7875 15.992C53.0595 15.72 53.1955 15.264 53.1955 14.624V13.328C53.1955 12.72 53.0835 12.28 52.8595 12.008C52.6515 11.736 52.3155 11.6 51.8515 11.6H50.6515V16.4H51.6115ZM58.5312 9.2H61.1712V26H58.5312V9.2ZM67.4204 26.24C66.1404 26.24 65.1724 25.88 64.5164 25.16C63.8604 24.424 63.5324 23.376 63.5324 22.016V21.056H66.0284V22.208C66.0284 23.296 66.4844 23.84 67.3964 23.84C67.8444 23.84 68.1804 23.712 68.4044 23.456C68.6444 23.184 68.7644 22.752 68.7644 22.16C68.7644 21.456 68.6044 20.84 68.2844 20.312C67.9644 19.768 67.3724 19.12 66.5084 18.368C65.4204 17.408 64.6604 16.544 64.2284 15.776C63.7964 14.992 63.5804 14.112 63.5804 13.136C63.5804 11.808 63.9164 10.784 64.5884 10.064C65.2604 9.328 66.2364 8.96 67.5164 8.96C68.7804 8.96 69.7324 9.328 70.3724 10.064C71.0284 10.784 71.3564 11.824 71.3564 13.184V13.88H68.8604V13.016C68.8604 12.44 68.7484 12.024 68.5244 11.768C68.3004 11.496 67.9724 11.36 67.5404 11.36C66.6604 11.36 66.2204 11.896 66.2204 12.968C66.2204 13.576 66.3804 14.144 66.7004 14.672C67.0364 15.2 67.6364 15.84 68.5004 16.592C69.6044 17.552 70.3644 18.424 70.7804 19.208C71.1964 19.992 71.4044 20.912 71.4044 21.968C71.4044 23.344 71.0604 24.4 70.3724 25.136C69.7004 25.872 68.7164 26.24 67.4204 26.24ZM75.8221 11.6H73.0621V9.2H81.2221V11.6H78.4621V26H75.8221V11.6ZM83.3403 9.2H85.9803V26H83.3403V9.2ZM90.8374 9.2H94.4134L97.1494 26H94.5094L94.0294 22.664V22.712H91.0294L90.5494 26H88.1014L90.8374 9.2ZM93.7174 20.432L92.5414 12.128H92.4934L91.3414 20.432H93.7174ZM99.2703 9.2H102.582L105.15 19.256H105.198V9.2H107.55V26H104.838L101.67 13.736H101.622V26H99.2703V9.2ZM123.44 26.24C122.176 26.24 121.208 25.88 120.536 25.16C119.88 24.44 119.552 23.424 119.552 22.112V13.088C119.552 11.776 119.88 10.76 120.536 10.04C121.208 9.32 122.176 8.96 123.44 8.96C124.704 8.96 125.664 9.32 126.32 10.04C126.992 10.76 127.328 11.776 127.328 13.088V14.864H124.832V12.92C124.832 11.88 124.392 11.36 123.512 11.36C122.632 11.36 122.192 11.88 122.192 12.92V22.304C122.192 23.328 122.632 23.84 123.512 23.84C124.392 23.84 124.832 23.328 124.832 22.304V19.736H127.328V22.112C127.328 23.424 126.992 24.44 126.32 25.16C125.664 25.88 124.704 26.24 123.44 26.24ZM131.787 9.2H135.363L138.099 26H135.459L134.979 22.664V22.712H131.979L131.499 26H129.051L131.787 9.2ZM134.667 20.432L133.491 12.128H133.443L132.291 20.432H134.667ZM143.582 26.24C142.302 26.24 141.334 25.88 140.678 25.16C140.022 24.424 139.694 23.376 139.694 22.016V21.056H142.19V22.208C142.19 23.296 142.646 23.84 143.558 23.84C144.006 23.84 144.342 23.712 144.566 23.456C144.806 23.184 144.926 22.752 144.926 22.16C144.926 21.456 144.766 20.84 144.446 20.312C144.126 19.768 143.534 19.12 142.67 18.368C141.582 17.408 140.822 16.544 140.39 15.776C139.958 14.992 139.742 14.112 139.742 13.136C139.742 11.808 140.078 10.784 140.75 10.064C141.422 9.328 142.398 8.96 143.678 8.96C144.942 8.96 145.894 9.328 146.534 10.064C147.19 10.784 147.518 11.824 147.518 13.184V13.88H145.022V13.016C145.022 12.44 144.91 12.024 144.686 11.768C144.462 11.496 144.134 11.36 143.702 11.36C142.822 11.36 142.382 11.896 142.382 12.968C142.382 13.576 142.542 14.144 142.862 14.672C143.198 15.2 143.798 15.84 144.662 16.592C145.766 17.552 146.526 18.424 146.942 19.208C147.358 19.992 147.566 20.912 147.566 21.968C147.566 23.344 147.222 24.4 146.534 25.136C145.862 25.872 144.878 26.24 143.582 26.24ZM151.984 11.6H149.224V9.2H157.384V11.6H154.624V26H151.984V11.6ZM159.502 9.2H163.414C164.774 9.2 165.766 9.52 166.39 10.16C167.014 10.784 167.326 11.752 167.326 13.064V14.096C167.326 15.84 166.75 16.944 165.598 17.408V17.456C166.238 17.648 166.686 18.04 166.942 18.632C167.214 19.224 167.35 20.016 167.35 21.008V23.96C167.35 24.44 167.366 24.832 167.398 25.136C167.43 25.424 167.51 25.712 167.638 26H164.95C164.854 25.728 164.79 25.472 164.758 25.232C164.726 24.992 164.71 24.56 164.71 23.936V20.864C164.71 20.096 164.582 19.56 164.326 19.256C164.086 18.952 163.662 18.8 163.054 18.8H162.142V26H159.502V9.2ZM163.102 16.4C163.63 16.4 164.022 16.264 164.278 15.992C164.55 15.72 164.686 15.264 164.686 14.624V13.328C164.686 12.72 164.574 12.28 164.35 12.008C164.142 11.736 163.806 11.6 163.342 11.6H162.142V16.4H163.102ZM173.838 26.24C172.542 26.24 171.55 25.872 170.862 25.136C170.174 24.4 169.83 23.36 169.83 22.016V13.184C169.83 11.84 170.174 10.8 170.862 10.064C171.55 9.328 172.542 8.96 173.838 8.96C175.134 8.96 176.126 9.328 176.814 10.064C177.502 10.8 177.846 11.84 177.846 13.184V22.016C177.846 23.36 177.502 24.4 176.814 25.136C176.126 25.872 175.134 26.24 173.838 26.24ZM173.838 23.84C174.75 23.84 175.206 23.288 175.206 22.184V13.016C175.206 11.912 174.75 11.36 173.838 11.36C172.926 11.36 172.47 11.912 172.47 13.016V22.184C172.47 23.288 172.926 23.84 173.838 23.84Z" fill="white"/>
<g clip-path="url(#clip0_134_144)">
<path d="M33.066 22.7417C32.9445 22.8735 32.9739 23.0279 32.9412 23.159C32.6994 24.1295 32.2534 24.9649 31.387 25.5209C31.2626 25.6008 31.2074 25.6945 31.1882 25.8354C31.1511 26.1074 31.1048 26.3797 30.9865 26.6309C30.8479 26.9248 30.6937 27.233 30.3095 27.2119C29.9452 27.1919 29.8823 26.8672 29.7995 26.564C29.5761 26.8523 29.4246 27.2222 28.9842 27.1477C28.6624 27.0933 28.6282 26.803 28.5484 26.5327C28.3594 26.7116 28.2142 26.947 27.9252 26.9286C27.7398 26.9168 27.6376 26.7839 27.5605 26.6251C27.1771 27.2601 26.7722 27.869 26.7835 28.652C26.7879 28.9585 26.849 29.2108 27.0622 29.4293C27.2079 29.5786 27.3559 29.7286 27.4808 29.8949C27.7494 30.2526 27.6928 30.5743 27.3179 30.8212C26.9717 31.0493 26.5794 31.1715 26.1723 31.2133C24.8234 31.3516 23.469 31.3318 22.1198 31.2498C21.1909 31.1933 20.5006 30.6782 20.0151 29.888C19.7785 29.5029 19.5925 29.0925 19.405 28.6832C19.3467 28.556 19.2875 28.5037 19.1355 28.5204C16.8101 28.7761 14.5029 28.7427 12.2393 28.0613C12.2198 28.0554 12.1961 28.0634 12.1662 28.0655C12.0762 28.4952 12.0703 28.9348 12.0341 29.3715C12.0164 29.5839 12.1204 29.7237 12.2645 29.8544C12.494 30.0627 12.6734 30.3063 12.5869 30.6336C12.4956 30.9791 12.1947 31.1038 11.8861 31.1566C10.338 31.4213 8.83003 31.2547 7.33031 30.7903C6.14556 30.4234 5.43623 29.6901 5.2174 28.4752C5.20388 28.4002 5.20329 28.3196 5.11448 28.2633C4.99126 28.5751 4.85252 28.88 4.4513 28.8893C4.11893 28.8971 3.92392 28.6948 3.57987 28.0032C3.46469 28.0431 3.44354 28.1652 3.37454 28.2432C2.96143 28.7101 2.42029 28.6453 2.15213 28.0857C2.00337 27.7753 1.94044 27.4399 1.91089 27.0989C1.9004 26.978 1.89955 26.8648 1.78796 26.7757C0.733457 25.9336 0.350443 24.7641 0.193777 23.4858C0.172393 23.3113 0.151832 23.1367 0.12762 22.9339C0.0773183 22.791 0.10973 22.6708 0.100043 22.5238C0.0974892 22.0972 0.105303 21.7002 0.0810011 21.2777C0.06604 21.1173 0.06604 20.9825 0.06604 20.8189C0.219554 20.4462 0.188031 20.0699 0.250029 19.7101C0.498112 18.2706 0.929595 16.8944 1.61711 15.6026C1.68498 15.475 1.77149 15.3716 1.60316 15.2373C1.47646 15.1363 1.5407 14.9702 1.56864 14.8315C1.80854 13.6406 2.24369 12.5153 2.72448 11.4055C3.81247 8.89389 5.61017 6.96123 7.72643 5.29317C9.33874 4.02232 11.1172 3.09242 13.1589 2.72783C13.3133 2.70027 13.4113 2.61135 13.5159 2.51223C14.725 1.36666 16.1976 1.02423 17.8078 1.12323C18.1539 1.1445 18.3205 1.37203 18.2027 1.68926C18.1194 1.91347 18.2284 1.92493 18.3738 1.96672C18.6703 2.05189 19.0263 2.10088 19.2116 2.32741C19.5572 2.74978 20.0453 2.81986 20.4949 2.98733C23.4578 4.09106 25.6898 6.10849 27.5225 8.6162C28.5703 10.05 29.4414 11.5809 30.056 13.2599C30.3305 14.0098 30.7665 14.697 31.1697 15.391C31.9861 16.7963 32.6634 18.2545 32.899 19.883C32.9415 20.1763 32.9781 20.4706 33.0417 20.7772C33.066 20.8817 33.066 20.9733 33.066 21.0925C32.9974 21.2352 33.0435 21.3597 33.0516 21.4979C33.066 21.6292 33.066 21.7423 33.066 21.8837C32.998 22.0492 33.0443 22.1944 33.0513 22.3549C33.066 22.4872 33.066 22.6003 33.066 22.7417Z" fill="#2A2B5E"/>
<path d="M0.06604 21.2829C0.208848 21.6453 0.0877917 22.053 0.126116 22.4827C0.110604 22.5209 0.100264 22.5281 0.0779821 22.5207C0.06604 22.1086 0.06604 21.7112 0.06604 21.2829Z" fill="#747595"/>
<path d="M33.066 22.3451C32.9463 22.2406 33.0015 22.0924 33.0478 21.9293C33.066 22.0468 33.066 22.1815 33.066 22.3451Z" fill="#494B75"/>
<path d="M33.066 21.4877C32.9624 21.4035 32.9914 21.2769 33.0464 21.1348C33.066 21.2331 33.066 21.3463 33.066 21.4877Z" fill="#4C4E77"/>
<path d="M0.06604 22.5343C0.06604 22.506 0.0932487 22.5117 0.107096 22.5127C0.12579 22.6259 0.130637 22.7381 0.129918 22.878C0.124351 22.9056 0.0952757 22.9025 0.0806579 22.9023C0.06604 22.7889 0.06604 22.6757 0.06604 22.5343Z" fill="#B6B7C8"/>
<path d="M17.5034 2.41945C17.3062 2.4646 17.1215 2.48787 16.9361 2.50452C16.7769 2.51883 16.6932 2.59795 16.7032 2.7603C16.7125 2.9095 16.8048 2.97117 16.9456 2.97063C17.0885 2.97007 17.2321 2.97437 17.3743 2.96261C18.7326 2.85022 19.9845 3.23638 21.1926 3.79655C23.2465 4.74895 24.9132 6.1796 26.3191 7.94304C27.3232 9.2025 28.2016 10.5374 28.9204 11.977C29.2995 12.7363 29.5925 13.5274 29.7301 14.3698C29.7453 14.463 29.8143 14.5772 29.7045 14.6369C29.597 14.6955 29.5272 14.5828 29.4581 14.5181C29.1105 14.1927 28.8154 13.8265 28.6065 13.396C28.5291 13.2366 28.4431 13.0856 28.3092 12.9648C28.195 12.8617 28.0776 12.8508 27.9486 12.9306C27.8192 13.0107 27.8323 13.1354 27.8597 13.2537C27.8765 13.3263 27.9195 13.3951 27.9604 13.4596C28.7399 14.6891 29.2354 16.0322 29.5372 17.449C29.5956 17.7235 29.6602 18.0059 29.6295 18.3196C29.4057 18.2339 29.3846 18.0198 29.2943 17.8623C29.2154 17.7246 29.1538 17.5767 28.9505 17.6401C28.756 17.7008 28.739 17.8605 28.7775 18.0145C28.9673 18.7737 29.0334 19.5469 29.0794 20.3249C29.1204 21.0173 29.1047 21.7092 29.094 22.4013C29.0924 22.501 29.0893 22.6598 28.9743 22.6787C28.8448 22.7 28.821 22.5417 28.7878 22.4454C28.6014 21.9054 28.4756 21.35 28.3711 20.7886C28.3414 20.6295 28.3502 20.39 28.0984 20.4107C27.8517 20.4309 27.7989 20.6412 27.7971 20.8514C27.7904 21.6541 27.8032 22.4573 27.7818 23.2596C27.7525 24.3576 27.492 25.4071 27.0523 26.4122C27.0197 26.4866 27.0072 26.5854 26.9072 26.6159C26.8447 26.5794 26.8677 26.5198 26.8646 26.4707C26.8538 26.3009 26.7967 26.1358 26.6042 26.1671C26.4158 26.1977 26.3053 26.3519 26.3454 26.5609C26.4632 27.1761 26.3934 27.7831 26.2874 28.3915C26.1931 28.933 26.318 29.401 26.7243 29.8051C27.1992 30.2772 27.2584 30.343 26.4948 30.6218C26.0786 30.7737 25.6301 30.7978 25.1969 30.8059C24.2206 30.8241 23.242 30.8827 22.2663 30.7664C21.4161 30.6652 20.7916 30.2381 20.3876 29.488C20.2365 29.2074 20.1032 28.9173 19.9539 28.6358C19.8672 28.4724 19.8617 28.4014 20.0886 28.3688C21.1857 28.2111 22.2661 27.9711 23.3309 27.6604C23.5091 27.6084 23.6638 27.5416 23.613 27.3353C23.557 27.1078 23.3802 27.1244 23.189 27.1799C21.8081 27.5809 20.4097 27.916 18.9755 28.0374C16.756 28.2254 14.5445 28.23 12.3925 27.516C11.8361 27.3313 11.746 27.4001 11.6758 27.9734C11.6212 28.4194 11.5651 28.864 11.5475 29.3142C11.535 29.6358 11.6385 29.8884 11.8675 30.109C11.972 30.2096 12.166 30.2973 12.1098 30.4675C12.048 30.6546 11.8326 30.6638 11.6619 30.6896C11.0403 30.7833 10.4113 30.8021 9.7887 30.7487C8.79989 30.6638 7.84551 30.4207 6.93552 30.0103C6.30463 29.7259 5.99224 29.219 5.87111 28.5381C6.54851 28.5243 6.67633 28.3935 6.665 27.7035C6.66357 27.6164 6.66481 27.5293 6.66481 27.4397C6.83331 27.4119 6.90233 27.5506 7.00953 27.6148C7.22434 27.7436 7.44944 27.7713 7.66564 27.6403C7.87973 27.5106 7.90644 27.3074 7.87409 27.066C7.83907 26.8048 7.81745 26.5437 7.73527 26.2911C7.69656 26.1721 7.6999 26.0548 7.77791 25.9452C7.96945 25.6761 8.15009 25.4 8.25529 25.0833C8.30071 24.9465 8.40904 24.9452 8.5217 24.9452C8.76338 24.945 9.00356 24.9437 9.24086 24.8789C9.7538 24.7389 9.87216 24.332 9.51104 23.9312C9.27926 23.674 8.98887 23.4953 8.69087 23.3298C8.5463 23.2495 8.44949 23.1626 8.4484 22.9771C8.44025 21.5981 8.08418 20.2657 7.89477 18.9108C7.84624 18.5637 7.79138 18.218 7.78414 17.8657C7.77354 17.3498 7.7465 16.8343 7.73161 16.3186C7.72626 16.1332 7.71856 15.9336 7.4799 15.9346C7.25934 15.9355 7.20326 16.1157 7.2024 16.3102C7.19792 17.321 7.25767 18.3265 7.42221 19.3257C7.66781 20.817 7.98064 22.2974 7.93346 23.8268C7.89484 25.0789 7.33703 25.9702 6.22204 26.4908C5.24311 26.9479 4.20249 27.1115 3.14368 26.82C1.95432 26.4927 1.3156 25.6045 0.994911 24.4802C0.657911 23.2987 0.62474 22.0877 0.703422 20.8601C0.805342 19.2699 1.21683 17.7696 1.85262 16.324C2.25571 15.4075 2.80695 14.5922 3.65277 14.0163C3.78952 13.9232 3.87589 13.8265 3.78289 13.6674C3.69564 13.5182 3.56121 13.5094 3.4102 13.5765C2.9843 13.7658 2.68675 14.1052 2.39027 14.4452C2.33474 14.5089 2.30122 14.593 2.17525 14.6221C2.38018 13.699 2.68787 12.8349 3.04676 11.9872C3.59794 10.6854 4.27849 9.46419 5.20324 8.38265C6.54975 6.80785 8.08844 5.46612 9.88241 4.42276C10.7912 3.89421 11.7563 3.51109 12.7836 3.28353C13.1502 3.20233 13.8086 2.86419 14.1215 2.61656C14.9495 1.96127 15.8952 1.61737 16.9469 1.57902C17.155 1.57143 17.3715 1.43901 17.6034 1.59469C17.4861 1.72321 17.3388 1.75699 17.1986 1.80377C17.0432 1.85561 16.8639 1.88358 16.8934 2.11699C16.9203 2.32952 17.1013 2.31445 17.2429 2.34978C17.3047 2.36518 17.3739 2.35061 17.4669 2.34677C17.5012 2.36082 17.5084 2.37775 17.5034 2.41945Z" fill="white"/>
<path d="M29.2616 23.3819C29.637 22.9255 29.6409 22.4039 29.6385 21.8734C29.6346 20.9843 29.618 20.0965 29.5146 19.2125C29.4994 19.0823 29.5217 19.0534 29.667 19.0614C30.0521 19.0824 30.2607 18.84 30.2176 18.4344C30.1095 17.4162 29.8998 16.4202 29.504 15.4722C29.4035 15.2317 29.4437 15.148 29.7049 15.1811C29.841 15.1984 29.9851 15.1743 30.0752 15.0772C30.2708 14.8666 30.3441 14.9579 30.461 15.1636C31.0693 16.2334 31.6932 17.2972 32.0446 18.4857C32.4967 20.015 32.7437 21.5745 32.3919 23.157C32.0897 24.5158 31.117 25.4937 29.562 25.5581C29.1063 25.5769 28.6688 25.5783 28.2566 25.351C28.0892 25.2587 28.0146 25.1407 28.062 24.9491C28.2392 24.234 28.2919 23.5034 28.3263 22.7115C28.54 23.0495 28.7077 23.3905 29.1713 23.3569C29.2112 23.3876 29.2174 23.4201 29.2122 23.478C29.0723 23.8441 29.0992 24.1924 29.1846 24.537C29.2279 24.7116 29.3211 24.8669 29.518 24.9108C29.732 24.9585 29.8747 24.8346 29.9972 24.6858C30.1785 24.4656 30.233 24.1937 30.2871 23.9242C30.3022 23.8488 30.3012 23.7602 30.2021 23.7366C30.1089 23.7144 30.0619 23.7852 30.0285 23.8561C29.9629 23.9957 29.9465 24.1531 29.8777 24.2917C29.8236 24.4007 29.7663 24.528 29.62 24.5049C29.4775 24.4824 29.4511 24.347 29.4297 24.2265C29.3865 23.9825 29.4798 23.7149 29.2901 23.4732C29.2713 23.4373 29.2658 23.4218 29.2616 23.3819Z" fill="white"/>
<path d="M4.10772 27.8251C4.05963 27.7018 3.96301 27.5747 4.07146 27.5022C4.22039 27.4026 4.41279 27.4478 4.58377 27.4695C4.72256 27.487 4.67472 27.6201 4.68657 27.7115C4.68797 27.7223 4.68685 27.7334 4.68676 27.7444C4.685 27.9624 4.72154 28.2856 4.51483 28.3292C4.25324 28.3843 4.20897 28.052 4.10772 27.8251Z" fill="#5C4286"/>
<path d="M2.88503 27.9784C2.67357 27.911 2.42079 27.4578 2.46757 27.2738C2.47421 27.2476 2.50858 27.204 2.51909 27.2071C2.73785 27.2696 2.99101 27.2905 3.16096 27.42C3.29389 27.5212 3.13314 27.7131 3.05765 27.8491C3.02846 27.9017 2.96036 27.9327 2.88503 27.9784Z" fill="#5B4185"/>
<path d="M8.38324 24.1084C8.36291 23.8616 8.43594 23.7911 8.63686 23.9193C8.68272 23.9486 8.73977 23.9647 8.77752 24.0014C8.89256 24.1134 9.18202 24.1705 9.06533 24.3592C8.97094 24.5119 8.69297 24.5204 8.48921 24.4714C8.30692 24.4275 8.4088 24.2527 8.38324 24.1084Z" fill="#8456A6"/>
<path d="M5.82137 27.7676C5.76977 27.6954 5.73379 27.6409 5.69848 27.586C5.64125 27.4969 5.51388 27.3825 5.58926 27.307C5.67937 27.2167 5.84163 27.1929 5.97684 27.1555C6.04288 27.1373 6.06159 27.2021 6.07039 27.2592C6.10789 27.5024 6.18277 27.7434 6.11425 28.0013C5.97615 27.98 5.92736 27.8555 5.82137 27.7676Z" fill="#5A4184"/>
<path d="M6.88507 26.9135C6.77832 26.6467 7.01542 26.6054 7.13656 26.5559C7.28354 26.4959 7.25866 26.6922 7.3048 26.7768C7.32886 26.8209 7.32754 26.8838 7.32367 26.9371C7.31775 27.0186 7.36551 27.125 7.26155 27.1711C7.1616 27.2153 7.10392 27.1251 7.04093 27.0685C6.99225 27.0247 6.94755 26.9765 6.88507 26.9135Z" fill="#8456A6"/>
<path d="M30.2314 26.2584C30.2374 26.1666 30.2267 26.0919 30.2556 26.0388C30.3209 25.9193 30.4618 25.8781 30.5662 25.9128C30.6759 25.9493 30.6278 26.0848 30.598 26.1741C30.5437 26.3369 30.5137 26.5148 30.3357 26.6656C30.2975 26.5246 30.2651 26.405 30.2314 26.2584Z" fill="#594083"/>
<path d="M29.0405 26.2159C29.0791 26.0334 29.2067 26.0472 29.2977 26.0895C29.4292 26.1506 29.3411 26.2589 29.2994 26.3368C29.2521 26.4254 29.2299 26.5939 29.1087 26.5579C28.972 26.5173 29.063 26.3512 29.0405 26.2159Z" fill="#5B4185"/>
<path d="M28.1769 25.8726C28.2946 26.0797 28.1551 26.1773 28.0396 26.3027C27.9404 25.9297 27.9537 25.8834 28.1769 25.8726Z" fill="#5A4184"/>
<path d="M17.521 2.44599C17.4911 2.42756 17.4909 2.41093 17.4924 2.36908C17.7215 2.26441 17.9371 2.3018 18.1477 2.44779C17.9487 2.44779 17.7498 2.44779 17.521 2.44599Z" fill="#684990"/>
<path d="M29.1735 23.4994C29.1607 23.4528 29.1695 23.4247 29.1884 23.3764C29.213 23.3583 29.2275 23.3591 29.2525 23.358C29.2718 23.3685 29.2807 23.3796 29.2965 23.4109C29.3096 23.5127 29.2588 23.5232 29.1735 23.4994Z" fill="#3A316B"/>
<path d="M5.87187 28.5137C5.86273 28.5039 5.85537 28.4923 5.84802 28.4808C5.85515 28.4835 5.86227 28.4861 5.87316 28.4986C5.87692 28.5085 5.87365 28.5121 5.87187 28.5137Z" fill="#8456A6"/>
<path d="M10.5528 13.9203C10.7474 14.2814 10.9324 14.6172 11.2197 14.8851C11.4106 15.0631 11.5769 15.0452 11.7669 14.8797C12.0241 14.6557 12.108 14.3498 12.202 14.0454C12.2603 13.8569 12.3128 13.6665 12.3764 13.4798C12.4218 13.3464 12.5029 13.2554 12.6652 13.2582C12.8182 13.2609 12.9081 13.3334 12.9719 13.464C13.1119 13.7503 13.2412 14.0435 13.4034 14.317C13.7298 14.8676 14.1277 14.9068 14.5655 14.4401C14.8391 14.1485 15.0118 13.7909 15.1957 13.4399C15.2876 13.2646 15.3469 13.0086 15.611 13.0348C15.8519 13.0587 15.9161 13.2763 15.9921 13.4806C16.1179 13.8191 16.233 14.1687 16.4691 14.4523C16.6922 14.7202 16.8456 14.7195 17.104 14.4898C17.3316 14.2875 17.4806 14.0348 17.6099 13.7652C17.6617 13.6571 17.715 13.5447 17.7913 13.4543C18.0146 13.1898 18.2387 13.2335 18.3396 13.5673C18.4448 13.9156 18.5589 14.2598 18.741 14.5746C19.0637 15.1325 19.4997 15.1482 19.8848 14.6241C20.0282 14.429 20.1577 14.2271 20.2372 13.9943C20.2979 13.8168 20.3641 13.6399 20.6145 13.6521C20.8643 13.6643 20.8731 13.8608 20.9126 14.0227C20.9811 14.3035 21.0926 14.5648 21.2319 14.8148C21.531 15.3515 21.989 15.3917 22.3889 14.9185C22.6108 14.6557 22.7696 14.3554 22.9013 14.0394C22.9436 13.9382 22.9842 13.836 23.0333 13.738C23.1027 13.5995 23.2095 13.5157 23.375 13.5299C23.5292 13.5432 23.6009 13.6485 23.6556 13.7752C23.7514 13.9968 23.8465 14.2187 23.9454 14.4389C23.9858 14.529 24.0264 14.6214 24.0826 14.7017C24.2539 14.9462 24.4273 15.2152 24.7783 15.1701C25.1076 15.1278 25.1991 14.8387 25.2689 14.5742C25.3525 14.2576 25.3997 13.9313 25.4589 13.6084C25.4861 13.4597 25.5172 13.3064 25.715 13.343C25.9018 13.3775 25.9543 13.516 25.9161 13.6931C25.8169 14.1522 25.7725 14.6203 25.5998 15.0671C25.4373 15.4875 25.6205 15.9146 25.7 16.3271C25.8609 17.1621 25.8382 17.9897 25.6531 18.8086C25.4638 19.6465 24.9744 20.2877 24.1936 20.6573C23.8857 20.803 23.8809 20.955 23.9581 21.2432C24.2258 22.2422 24.4268 23.2483 24.1736 24.2915C24.0277 24.8927 23.684 25.3355 23.2019 25.6935C22.2447 26.4044 21.1495 26.7176 19.9784 26.8022C18.5453 26.9056 17.2318 26.5727 16.0983 25.6657C15.444 25.1421 15.007 24.4379 14.5998 23.7184C14.3346 23.25 14.0802 22.7754 13.8227 22.3027C13.747 22.1638 13.6726 22.0445 13.4803 22.0445C11.9964 22.0447 11.165 21.1461 10.595 19.9137C10.2131 19.0877 9.99818 18.2008 9.99538 17.3012C9.99206 16.232 9.89021 15.1549 10.0913 14.0892C10.1532 13.761 10.2495 13.7108 10.5528 13.9203Z" fill="#25275A"/>
<path d="M16.6748 10.4521C16.1301 10.2363 15.6735 9.94388 15.3699 9.45752C15.0698 8.97701 15.185 8.40314 15.6395 8.05693C16.2088 7.6233 16.8681 7.53888 17.5473 7.60634C18.2769 7.6788 19.0031 7.7934 19.7099 7.99862C20.2628 8.15917 20.7881 8.37491 21.1874 8.81702C21.5709 9.24166 21.5344 9.70617 21.0594 10.0243C19.6866 10.944 18.222 11.0142 16.6748 10.4521Z" fill="#27285C"/>
<path d="M11.0697 8.75389C11.7614 8.63763 12.4204 8.58079 13.0718 8.83497C13.6745 9.07014 13.84 9.54157 13.4934 10.0914C13.164 10.6139 12.6434 10.8703 12.0952 11.0753C11.3162 11.3664 10.517 11.5247 9.68313 11.3467C9.59776 11.3284 9.51306 11.3023 9.43178 11.2704C8.81221 11.0268 8.63542 10.4764 8.98818 9.91528C9.46475 9.1572 10.2297 8.91846 11.0697 8.75389Z" fill="#28285C"/>
<path d="M22.384 7.41415C21.3061 7.84763 20.2956 7.60643 19.3042 7.19897C18.9683 7.06093 18.6667 6.84616 18.4389 6.55851C18.0063 6.0122 18.1813 5.41761 18.8239 5.15243C19.2509 4.97623 19.6786 5.01674 20.1175 5.07813C20.7745 5.16999 21.4047 5.34451 22.0032 5.62914C22.2021 5.7237 22.3802 5.85115 22.539 6.00667C23.076 6.53265 23.0359 6.96573 22.384 7.41415Z" fill="#28285C"/>
<path d="M12.9478 5.55566C13.5963 5.00265 14.3546 5.03777 15.098 5.10927C15.6938 5.16657 16.3009 5.24403 16.796 5.65403C17.1886 5.97916 17.2261 6.37168 16.8669 6.72588C16.3103 7.27479 15.5835 7.40214 14.8545 7.52593C14.1786 7.64069 13.5364 7.56782 12.9683 7.16583C12.3422 6.72285 12.3343 6.02146 12.9478 5.55566Z" fill="#28285C"/>
<path d="M24.571 9.02312C25.1707 9.50303 25.6674 10.0394 25.9873 10.7205C26.1152 10.9929 26.2274 11.2743 26.0231 11.5618C25.802 11.8732 25.4575 11.9511 25.1384 11.8636C23.84 11.5077 22.8171 10.7799 22.2606 9.51395C22.1136 9.17949 22.0632 8.80191 22.3609 8.49397C22.6727 8.17143 23.0531 8.218 23.4366 8.32697C23.8713 8.45047 24.2136 8.72739 24.571 9.02312Z" fill="#27285C"/>
<path d="M29.1284 23.4924C29.1937 23.4757 29.2354 23.4704 29.2903 23.4481C29.4743 23.4623 29.4891 23.5969 29.4958 23.7307C29.503 23.873 29.4956 24.0161 29.5039 24.1583C29.5108 24.2752 29.5019 24.4375 29.6389 24.4571C29.7604 24.4745 29.7844 24.3147 29.8208 24.2172C29.8704 24.0846 29.8944 23.9423 29.9442 23.8097C29.9907 23.6858 30.0538 23.5474 30.2238 23.6031C30.3841 23.6556 30.4234 23.7774 30.3792 23.9454C30.2927 24.2745 30.2256 24.6077 29.9636 24.8572C29.6882 25.1194 29.3424 25.0835 29.1793 24.7409C28.9911 24.3459 28.9687 23.9258 29.1284 23.4924Z" fill="#29285D"/>
<path d="M13.4623 20.858C13.378 20.7409 13.313 20.6371 13.2305 20.5499C13.1317 20.4454 13.0114 20.3321 12.863 20.4543C12.7178 20.5739 12.7359 20.7246 12.856 20.8589C13.0378 21.0622 13.1991 21.278 13.3247 21.5446C12.5787 21.5326 12.0312 21.2002 11.5797 20.6623C11.453 20.5114 11.5292 20.3911 11.5864 20.271C11.9447 19.52 12.5689 19.0482 13.3317 18.8106C15.1089 18.2568 16.7553 18.5142 18.1981 19.7499C18.3338 19.8662 18.458 19.9218 18.5974 19.7767C18.7391 19.6293 18.6339 19.5185 18.5297 19.4123C18.4758 19.3573 18.4216 19.3026 18.3655 19.2498C18.0438 18.9469 18.049 18.8911 18.4646 18.6851C20.563 17.6448 22.4672 18.7393 23.2766 20.647C23.6164 21.4479 23.7602 22.3046 23.8284 23.1743C23.9301 24.4722 23.3009 25.2962 22.1669 25.8072C21.3558 26.1727 20.4932 26.3861 19.6161 26.379C17.7003 26.3635 16.1869 25.5849 15.2267 23.8591C14.6663 22.852 14.1516 21.8171 13.4623 20.858Z" fill="#79519D"/>
<path d="M17.0997 8.05789C17.4241 8.08275 17.7199 8.0991 18.0132 8.13586C18.1655 8.15495 18.2599 8.20988 18.1187 8.39023C17.7477 8.86391 17.6523 9.40216 17.8391 9.97314C17.9126 10.1976 17.8491 10.2684 17.6406 10.2262C16.9991 10.0964 16.3836 9.90051 15.9124 9.41222C15.5301 9.01603 15.5785 8.64981 16.0375 8.35392C16.3519 8.15123 16.7069 8.09029 17.0997 8.05789Z" fill="#8255A4"/>
<path d="M11.1273 9.41709C10.9145 9.917 11.107 10.2692 11.4791 10.5535C11.6154 10.6576 11.6521 10.7515 11.4638 10.7888C10.9196 10.8967 10.3709 11.0529 9.81326 10.8919C9.22429 10.722 9.15036 10.4035 9.56392 9.93975C9.95484 9.50141 10.4981 9.39582 11.0256 9.25559C11.1298 9.22789 11.1604 9.29772 11.1273 9.41709Z" fill="#8155A4"/>
<path d="M18.98 5.62601C19.5703 5.46409 20.126 5.53444 20.6826 5.66521C20.6734 5.82368 20.5532 5.86358 20.4842 5.94105C20.2768 6.17387 20.1486 6.42764 20.2382 6.74859C20.2905 6.93608 20.2642 7.02447 20.037 6.95378C19.6019 6.81835 19.1946 6.63835 18.8732 6.3041C18.5893 6.00889 18.6097 5.86043 18.98 5.62601Z" fill="#8054A3"/>
<path d="M14.4496 6.26997C14.4467 6.50433 14.525 6.68151 14.64 6.84843C14.7116 6.95251 14.7512 7.05335 14.557 7.06319C14.1121 7.08574 13.6792 7.06334 13.2868 6.81078C12.9338 6.5835 12.8904 6.25573 13.1993 5.97285C13.6197 5.58783 14.136 5.54292 14.7103 5.55427C14.6006 5.80243 14.4226 5.98781 14.4496 6.26997Z" fill="#8055A3"/>
<path d="M23.9638 9.76566C23.7162 9.96589 23.6439 10.225 23.6102 10.5391C23.1733 10.1781 22.8136 9.79336 22.6613 9.26025C22.5456 8.8553 22.7314 8.67446 23.1397 8.75768C23.5742 8.84626 23.9112 9.10749 24.248 9.369C24.4055 9.49126 24.501 9.61148 24.1926 9.65672C24.1204 9.66732 24.0544 9.72017 23.9638 9.76566Z" fill="#8054A3"/>
</g>
<defs>
<clipPath id="clip0_134_144">
<rect width="33" height="33" fill="white"/>
</clipPath>
</defs>
</svg>
